<svg xmlns="http://www.w3.org/2000/svg" viewBox="-100 -1055 3423 1394">
  <g transform="scale(1,-1)" fill="#ffffff">
    <path transform="translate(0,0)" d="M361 700H293L13 0H93L161 171H330C378 171 417 197 424 243H190L327 589L560 0H642Z"/>
    <path transform="translate(655,0)" d="M312 -207C452 -207 553 -120 553 15V486H481V375C446 452 376 498 283 498C149 498 42 385 42 244C42 103 149 -8 294 -8C369 -8 411 22 435 60H306C182 60 114 142 114 244C114 348 194 429 297 429C403 429 481 351 481 244V12C481 -82 408 -145 310 -145C223 -145 152 -103 150 -35H79C83 -154 204 -207 312 -207Z"/>
    <path transform="translate(1282,0)" d="M210 -10C297 -10 319 29 331 55H214C142 55 112 85 112 134C112 192 160 214 269 214H373V0H442V305C442 420 368 496 242 496C139 496 54 423 48 329H117C121 390 174 431 242 431C321 431 373 386 373 308V276H267C141 276 41 233 41 129C41 49 103 -10 210 -10Z"/>
    <path transform="translate(1799,0)" d="M840 291C840 419 762 496 641 496C570 496 502 459 474 391C446 461 389 496 307 496C248 496 183 471 148 404V486H75V0H148V278C148 388 220 427 285 427C370 427 421 371 421 278V0H494V278C494 386 565 427 631 427C716 427 767 371 767 278V0H840Z"/>
    <path transform="translate(2706,0)" d="M210 -10C297 -10 319 29 331 55H214C142 55 112 85 112 134C112 192 160 214 269 214H373V0H442V305C442 420 368 496 242 496C139 496 54 423 48 329H117C121 390 174 431 242 431C321 431 373 386 373 308V276H267C141 276 41 233 41 129C41 49 103 -10 210 -10Z"/>
  </g>
</svg>
